# xmcd
#
# Track frame offsets: 
#        150
#        31174
#        57154
#        76806
#        99605
#        113014
#        132647
#        154206
#        175486
#        194779
#        214245
#        236985
#        259908
#        283624
#        310199
#
# Disc length: 4512 seconds
#
# Revision: 0
# Processed by: cddbd v1.5.2PL0 Copyright (c) Steve Scherf et al.
# Submitted via: ExactAudioCopyFreeDBPlugin 1.0
#
DISCID=e0119e0f
DTITLE=Harper - Live at the Blues Museum
DYEAR=2011
DGENRE=Blues
TTITLE0=Sure There's a Place
TTITLE1=Does Anybody Really Care
TTITLE2=Love=Peace=Freedom
TTITLE3=One Day
TTITLE4=Well I Know
TTITLE5=Glass on the Stepping Stone
TTITLE6=Take These Arms
TTITLE7=Feel's Like Sunday Morning
TTITLE8=We stand Together
TTITLE9=Not My Brother
TTITLE10=No Priblem
TTITLE11=Big Brown Land
TTITLE12=Face the Truth
TTITLE13=A Weaker Man
TTITLE14=I Never Want
EXTD=
EXTT0=
EXTT1=
EXTT2=
EXTT3=
EXTT4=
EXTT5=
EXTT6=
EXTT7=
EXTT8=
EXTT9=
EXTT10=
EXTT11=
EXTT12=
EXTT13=
EXTT14=
PLAYORDER=
